name Run_500 01_newCOP3_v24.mot
datacolumns 19
datarows 61
range 3.541667 3.604167
DataType=double
version=3
OpenSimVersion=4.3-2021-08-27-4bc7ad9
endheader
time	R_ground_force_vx	R_ground_force_vy	R_ground_force_vz	R_ground_force_px	R_ground_force_py	R_ground_force_pz	L_ground_force_vx	L_ground_force_vy	L_ground_force_vz	L_ground_force_px	L_ground_force_py	L_ground_force_pz	R_ground_torque_x	R_ground_torque_y	R_ground_torque_z	L_ground_torque_x	L_ground_torque_y	L_ground_torque_z
3.541667	-15.234251	63.751789	-4.927466	1.161593	0	-0.282565	0	0	0	0	0	0	-0	3.005231	-0	0	0	0
3.542708	-16.884666	72.479393	-5.158964	1.15905	0	-0.287442	0	0	0	0	0	0	-0	4.303953	-0	0	0	0
3.54375	-18.627932	82.26844	-5.374658	1.156777	0	-0.291838	0	0	0	0	0	0	-0	5.666664	-0	0	0	0
3.544792	-20.456789	93.212738	-5.566586	1.154792	0	-0.29579	0	0	0	0	0	0	-0	7.080433	-0	0	0	0
3.545833	-22.361898	105.408554	-5.725483	1.153098	0	-0.299332	0	0	0	0	0	0	-0	8.530345000000001	-0	0	0	0
3.546875	-24.332043	118.953323	-5.840831	1.15168	0	-0.302499	0	0	0	0	0	0	-0	9.999616	-0	0	0	0
3.547917	-26.354467	133.944138	-5.900931	1.150516	0	-0.305322	0	0	0	0	0	0	-0	11.469777	-0	0	0	0
3.548958	-28.415325	150.475967	-5.893019	1.149577	0	-0.307831	0	0	0	0	0	0	-0	12.920894	-0	0	0	0
3.55	-30.500244	168.639526	-5.803408	1.148829	0	-0.310054	0	0	0	0	0	0	-0	14.331826	-0	0	0	0
3.551042	-32.594978	188.519058	-5.617666	1.148239	0	-0.312017	0	0	0	0	0	0	-0	15.68054	-0	0	0	0
3.552083	-34.686108	210.189667	-5.320818	1.147771	0	-0.313745	0	0	0	0	0	0	-0	16.944448	-0	0	0	0
3.553125	-36.761768	233.7146	-4.897585	1.147393	0	-0.315261	0	0	0	0	0	0	-0	18.100788	-0	0	0	0
3.554167	-38.812378	259.142365	-4.332646	1.147073	0	-0.316586	0	0	0	0	0	0	-0	19.127018	-0	0	0	0
3.555208	-40.831329	286.50354	-3.610919	1.146784	0	-0.31774	0	0	0	0	0	0	-0	20.001244	-0	0	0	0
3.55625	-42.815594	315.807983	-2.717869	1.146501	0	-0.31874	0	0	0	0	0	0	-0	20.702646	-0	0	0	0
3.557292	-44.766258	347.041656	-1.639828	1.146203	0	-0.319603	0	0	0	0	0	0	-0	21.211918	-0	0	0	0
3.558333	-46.688923	380.164032	-0.364324	1.145872	0	-0.320344	0	0	0	0	0	0	-0	21.5117	-0	0	0	0
3.559375	-48.593967	415.105652	1.119584	1.145494	0	-0.320978	0	0	0	0	0	0	-0	21.586987	-0	0	0	0
3.560417	-50.496677	451.766357	2.82097	1.145059	0	-0.321515	0	0	0	0	0	0	-0	21.425529	-0	0	0	0
3.561458	-52.417187	490.013885	4.746713	1.14456	0	-0.321969	0	0	0	0	0	0	-0	21.018196	-0	0	0	0
3.5625	-54.380272	529.683594	6.901186	1.143991	0	-0.322348	0	0	0	0	0	0	-0	20.359287	-0	0	0	0
3.563542	-56.414921	570.578796	9.285964999999999	1.143352	0	-0.322663	0	0	0	0	0	0	-0	19.446808	-0	0	0	0
3.564583	-58.553783	612.472412	11.899569	1.142641	0	-0.322922	0	0	0	0	0	0	-0	18.282684	-0	0	0	0
3.565625	-60.832363	655.109436	14.73723	1.14186	0	-0.323132	0	0	0	0	0	0	-0	16.87291	-0	0	0	0
3.566667	-63.288094	698.210876	17.790728	1.141013	0	-0.323301	0	0	0	0	0	0	-0	15.227625	-0	0	0	0
3.567708	-65.959221	741.478333	21.04825	1.140103	0	-0.323434	0	0	0	0	0	0	-0	13.361122	-0	0	0	0
3.56875	-68.883568	784.599915	24.494335	1.139136	0	-0.323538	0	0	0	0	0	0	-0	11.291769	-0	0	0	0
3.569792	-72.09721399999999	827.257019	28.109869	1.138116	0	-0.323617	0	0	0	0	0	0	-0	9.041855	-0	0	0	0
3.570833	-75.633095	869.131592	31.872162	1.13705	0	-0.323677	0	0	0	0	0	0	-0	6.637357	-0	0	0	0
3.571875	-79.519661	909.913818	35.755089	1.135941	0	-0.32372	0	0	0	0	0	0	-0	4.107621	-0	0	0	0
3.572917	-83.779572	949.310303	39.729324	1.134797	0	-0.323752	0	0	0	0	0	0	-0	1.484975	-0	0	0	0
3.573958	-88.428535	987.051392	43.762646	1.133619	0	-0.323775	0	0	0	0	0	0	0	-1.195734	0	0	0	0
3.575	-93.47435	1022.898621	47.820301	1.132413	0	-0.323793	0	0	0	0	0	0	0	-3.897667	0	0	0	0
3.576042	-98.916191	1056.650879	51.865494	1.131182	0	-0.323809	0	0	0	0	0	0	0	-6.58258	0	0	0	0
3.577083	-104.744202	1088.150146	55.859894	1.129925	0	-0.323825	0	0	0	0	0	0	0	-9.211446	0	0	0	0
3.578125	-110.939346	1117.284546	59.764217	1.128645	0	-0.323845	0	0	0	0	0	0	0	-11.745127	0	0	0	0
3.579167	-117.473663	1143.991455	63.538898	1.12734	0	-0.32387	0	0	0	0	0	0	0	-14.14506	0	0	0	0
3.580208	-124.310738	1168.258179	67.144745	1.126008	0	-0.323903	0	0	0	0	0	0	0	-16.373957	0	0	0	0
3.58125	-131.406494	1190.120972	70.543648	1.124645	0	-0.323947	0	0	0	0	0	0	0	-18.396496	0	0	0	0
3.582292	-138.710205	1209.662598	73.69931800000001	1.123247	0	-0.324003	0	0	0	0	0	0	0	-20.179998	0	0	0	0
3.583333	-146.165634	1227.008545	76.578003	1.121806	0	-0.324073	0	0	0	0	0	0	0	-21.695076	0	0	0	0
3.584375	-153.71228	1242.322021	79.149147	1.120316	0	-0.324159	0	0	0	0	0	0	0	-22.916212	0	0	0	0
3.585417	-161.286652	1255.797363	81.386101	1.118767	0	-0.324264	0	0	0	0	0	0	0	-23.822317	0	0	0	0
3.586458	-168.823456	1267.654297	83.266685	1.117151	0	-0.324387	0	0	0	0	0	0	0	-24.397165	0	0	0	0
3.5875	-176.25676	1278.129517	84.77370500000001	1.115457	0	-0.324532	0	0	0	0	0	0	0	-24.629789	0	0	0	0
3.588542	-183.520905	1287.470337	85.895447	1.113674	0	-0.324698	0	0	0	0	0	0	0	-24.514753	0	0	0	0
3.589583	-190.551407	1295.927368	86.62595399999999	1.111793	0	-0.324885	0	0	0	0	0	0	0	-24.052326	0	0	0	0
3.590625	-197.285553	1303.747925	86.965271	1.109802	0	-0.325095	0	0	0	0	0	0	0	-23.248556	0	0	0	0
3.591667	-203.662964	1311.17041	86.919579	1.107692	0	-0.325325	0	0	0	0	0	0	0	-22.115227	0	0	0	0
3.592708	-209.626053	1318.418701	86.50110599999999	1.105454	0	-0.325575	0	0	0	0	0	0	0	-20.669691	0	0	0	0
3.59375	-215.120331	1325.698853	85.72803500000001	1.103081	0	-0.325841	0	0	0	0	0	0	0	-18.93461	0	0	0	0
3.594792	-220.094849	1333.195679	84.624168	1.100567	0	-0.326122	0	0	0	0	0	0	0	-16.937574	0	0	0	0
3.595833	-224.502579	1341.070557	83.218521	1.097906	0	-0.326414	0	0	0	0	0	0	0	-14.710612	0	0	0	0
3.596875	-228.300919	1349.460449	81.544815	1.095097	0	-0.326711	0	0	0	0	0	0	0	-12.289627	0	0	0	0
3.597917	-231.452301	1358.477417	79.64078499999999	1.09214	0	-0.327009	0	0	0	0	0	0	0	-9.713732	0	0	0	0
3.598958	-233.92482	1368.208984	77.54748499999999	1.089037	0	-0.327303	0	0	0	0	0	0	0	-7.02453	0	0	0	0
3.6	-235.693069	1378.718872	75.308441	1.08579	0	-0.327586	0	0	0	0	0	0	0	-4.265331	0	0	0	0
3.601042	-236.738876	1390.048218	72.968788	1.082408	0	-0.327851	0	0	0	0	0	0	0	-1.480333	0	0	0	0
3.602083	-237.052048	1402.216919	70.574348	1.078896	0	-0.328094	0	0	0	0	0	0	-0	1.286215	-0	0	0	0
3.603125	-236.631012	1415.225464	68.17066199999999	1.075266	0	-0.328308	0	0	0	0	0	0	-0	3.990859	-0	0	0	0
3.604167	-235.483231	1429.056274	65.80212400000001	1.07153	0	-0.328488	0	0	0	0	0	0	-0	6.591758	-0	0	0	0
